<svg width="62" height="67" viewBox="0 0 62 67" fill="none" xmlns="http://www.w3.org/2000/svg">
<ellipse cx="30.7417" cy="33.5753" rx="19.375" ry="19.5205" fill="#F2C94C" fill-opacity="0.58"/>
<path d="M11.7168 57.7979L17.5072 36.0256L33.3268 51.9641L11.7168 57.7979Z" fill="#F2C94C" fill-opacity="0.46"/>
<path d="M49.617 57.7979L43.8267 36.0256L28.007 51.9641L49.617 57.7979Z" fill="#F2C94C" fill-opacity="0.46"/>
<path d="M11.7168 9.20206L17.5072 30.9744L33.3268 15.0359L11.7168 9.20206Z" fill="#F2C94C" fill-opacity="0.46"/>
<path d="M49.617 9.20206L43.8267 30.9744L28.007 15.0359L49.617 9.20206Z" fill="#F2C94C" fill-opacity="0.46"/>
<path d="M31 2.08219L57.8468 48.9314H4.15321L31 2.08219Z" fill="#F2C94C" fill-opacity="0.46"/>
<path d="M62 33.315L42.625 44.5852V22.0448L62 33.315Z" fill="#F2C94C" fill-opacity="0.46"/>
<path d="M0 33.315L19.375 44.5852L19.375 22.0448L0 33.315Z" fill="#F2C94C" fill-opacity="0.46"/>
<path d="M31 64.5479L57.8468 17.6986H4.15321L31 64.5479Z" fill="#F2C94C" fill-opacity="0.46"/>
</svg>
