<svg width="334" height="160" viewBox="0 0 334 160" fill="none" xmlns="http://www.w3.org/2000/svg">
<path d="M97.9069 37.7376L67 76.6188H242L195.64 0L173.504 43.4554L155.126 9.91089L136.749 37.7376L125.055 14.104L103.337 46.1238L97.9069 37.7376Z" fill="#A69B97"/>
<path fill-rule="evenodd" clip-rule="evenodd" d="M97.9069 38.1188L67 77H79.5298H107.513H138.838L155.126 10.2921L136.749 38.1188L112.959 69.7574L125.055 14.4851L103.337 46.5049L100.658 49.9356L97.9069 38.1188Z" fill="#76716F"/>
<path d="M195.64 0.381184L173.504 43.8366L198.146 77H205.663L195.64 0.381184Z" fill="#76716F"/>
<path fill-rule="evenodd" clip-rule="evenodd" d="M97.9069 38.1188L67 77H79.5298H107.513H138.838L155.126 10.2921L136.749 38.1188L112.959 69.7574L125.055 14.4851L103.337 46.5049L100.658 49.9356L97.9069 38.1188Z" fill="#76716F"/>
<path d="M195.64 0.381184L173.504 43.8366L198.146 77H205.663L195.64 0.381184Z" fill="#76716F"/>
<path d="M133.907 59.7376L103 98.6188H278L231.64 22L209.504 65.4554L191.126 31.9109L172.749 59.7376L161.055 36.104L139.337 68.1238L133.907 59.7376Z" fill="#A69B97"/>
<path fill-rule="evenodd" clip-rule="evenodd" d="M133.907 60.1188L103 99H115.53H143.513H174.838L191.126 32.2921L172.749 60.1188L148.959 91.7574L161.055 36.4851L139.337 68.5049L136.658 71.9356L133.907 60.1188Z" fill="#76716F"/>
<path d="M231.64 22.3812L209.504 65.8366L234.146 99H241.663L231.64 22.3812Z" fill="#76716F"/>
<path fill-rule="evenodd" clip-rule="evenodd" d="M133.907 60.1188L103 99H115.53H143.513H174.838L191.126 32.2921L172.749 60.1188L148.959 91.7574L161.055 36.4851L139.337 68.5049L136.658 71.9356L133.907 60.1188Z" fill="#76716F"/>
<path d="M231.64 22.3812L209.504 65.8366L234.146 99H241.663L231.64 22.3812Z" fill="#76716F"/>
<path d="M168.907 68.7376L138 107.619H313L266.64 31L244.504 74.4554L226.126 40.9109L207.749 68.7376L196.055 45.104L174.337 77.1238L168.907 68.7376Z" fill="#A69B97"/>
<path fill-rule="evenodd" clip-rule="evenodd" d="M168.907 69.1188L138 108H150.53H178.513H209.838L226.126 41.2921L207.749 69.1188L183.959 100.757L196.055 45.4851L174.337 77.5049L171.658 80.9356L168.907 69.1188Z" fill="#76716F"/>
<path d="M266.64 31.3812L244.504 74.8366L269.146 108H276.663L266.64 31.3812Z" fill="#76716F"/>
<path fill-rule="evenodd" clip-rule="evenodd" d="M168.907 69.1188L138 108H150.53H178.513H209.838L226.126 41.2921L207.749 69.1188L183.959 100.757L196.055 45.4851L174.337 77.5049L171.658 80.9356L168.907 69.1188Z" fill="#76716F"/>
<path d="M266.64 31.3812L244.504 74.8366L269.146 108H276.663L266.64 31.3812Z" fill="#76716F"/>
<path d="M50 58L13 109H222.5L167 8.5L140.5 65.5L118.5 21.5L96.5 58L82.5 27L56.5 69L50 58Z" fill="#A69B97"/>
<path fill-rule="evenodd" clip-rule="evenodd" d="M50 58.5L13 109.5H28H61.5H99L118.5 22L96.5 58.5L68.0196 100L82.5 27.5L56.5 69.5L53.2938 74L50 58.5Z" fill="#76716F"/>
<path d="M167 9L140.5 66L170 109.5H179L167 9Z" fill="#76716F"/>
<path fill-rule="evenodd" clip-rule="evenodd" d="M50 58.5L13 109.5H28H61.5H99L118.5 22L96.5 58.5L68.0196 100L82.5 27.5L56.5 69.5L53.2938 74L50 58.5Z" fill="#76716F"/>
<path d="M167 9L140.5 66L170 109.5H179L167 9Z" fill="#76716F"/>
<path d="M16.8194 96L11 109.21H16.8194V96Z" fill="#97B498"/>
<path d="M16.8193 96L22 109.21H16.8193V96Z" fill="#C8E6C9"/>
<path d="M15.9677 111V109.125H17.6709V111H15.9677Z" fill="#A69B97"/>
<path d="M298.761 100L294 111.449H298.761V100Z" fill="#97B498"/>
<path d="M298.761 100L303 111.449H298.761V100Z" fill="#C8E6C9"/>
<path d="M298.065 113V111.375H299.458V113H298.065Z" fill="#A69B97"/>
<path d="M327.406 101L320 117.733H327.406V101Z" fill="#97B498"/>
<path d="M327.406 101L334 117.733H327.406V101Z" fill="#C8E6C9"/>
<path d="M326.323 120V117.625H328.49V120H326.323Z" fill="#A69B97"/>
<path d="M146.761 99L142 110.449H146.761V99Z" fill="#97B498"/>
<path d="M146.761 99L151 110.449H146.761V99Z" fill="#C8E6C9"/>
<path d="M146.065 112V110.375H147.458V112H146.065Z" fill="#A69B97"/>
<path d="M244.761 100L240 111.449H244.761V100Z" fill="#97B498"/>
<path d="M244.761 100L249 111.449H244.761V100Z" fill="#C8E6C9"/>
<path d="M244.065 113V111.375H245.458V113H244.065Z" fill="#A69B97"/>
<path d="M282.761 100L278 111.449H282.761V100Z" fill="#97B498"/>
<path d="M282.761 100L287 111.449H282.761V100Z" fill="#C8E6C9"/>
<path d="M282.065 113V111.375H283.458V113H282.065Z" fill="#A69B97"/>
<path d="M158.29 99L153 110.449H158.29V99Z" fill="#97B498"/>
<path d="M158.29 99L163 110.449H158.29V99Z" fill="#C8E6C9"/>
<path d="M157.516 112V110.375H159.065V112H157.516Z" fill="#A69B97"/>
<path d="M225.29 102L220 113.449H225.29V102Z" fill="#97B498"/>
<path d="M225.29 102L230 113.449H225.29V102Z" fill="#C8E6C9"/>
<path d="M224.516 115V113.375H226.065V115H224.516Z" fill="#A69B97"/>
<path d="M55.2903 98L50 109.449H55.2903V98Z" fill="#97B498"/>
<path d="M55.2903 98L60 109.449H55.2903V98Z" fill="#C8E6C9"/>
<path d="M54.5161 111V109.375H56.0645V111H54.5161Z" fill="#A69B97"/>
<path d="M234.406 98L227 114.733H234.406V98Z" fill="#97B498"/>
<path d="M234.406 98L241 114.733H234.406V98Z" fill="#C8E6C9"/>
<path d="M233.323 117V114.625H235.49V117H233.323Z" fill="#A69B97"/>
<path d="M35.4065 96L28 112.733H35.4065V96Z" fill="#97B498"/>
<path d="M35.4065 96L42 112.733H35.4065V96Z" fill="#C8E6C9"/>
<path d="M34.3226 115V112.625H36.4903V115H34.3226Z" fill="#A69B97"/>
<path d="M25.5806 99L15 120.136H25.5806V99Z" fill="#97B498"/>
<path d="M25.5806 99L35 120.136H25.5806V99Z" fill="#C8E6C9"/>
<path d="M24.0323 123V120H27.1291V123H24.0323Z" fill="#A69B97"/>
<path d="M48.5806 97L38 118.136H48.5806V97Z" fill="#97B498"/>
<path d="M48.5806 97L58 118.136H48.5806V97Z" fill="#C8E6C9"/>
<path d="M47.0323 121V118H50.1291V121H47.0323Z" fill="#A69B97"/>
<path d="M107.348 101L101 113.33H107.348V101Z" fill="#97B498"/>
<path d="M107.348 101L113 113.33H107.348V101Z" fill="#C8E6C9"/>
<path d="M106.419 115V113.25H108.277V115H106.419Z" fill="#A69B97"/>
<path d="M39.6387 104L28 126.017H39.6387V104Z" fill="#97B498"/>
<path d="M39.6387 104L50 126.017H39.6387V104Z" fill="#C8E6C9"/>
<path d="M37.9355 129V125.875H41.3419V129H37.9355Z" fill="#A69B97"/>
<path d="M10.5806 100L0 121.136H10.5806V100Z" fill="#97B498"/>
<path d="M10.5806 100L20 121.136H10.5806V100Z" fill="#C8E6C9"/>
<path d="M9.03229 124V121H12.1291V124H9.03229Z" fill="#A69B97"/>
<path d="M288.406 100L281 116.733H288.406V100Z" fill="#97B498"/>
<path d="M288.406 100L295 116.733H288.406V100Z" fill="#C8E6C9"/>
<path d="M287.323 119V116.625H289.49V119H287.323Z" fill="#A69B97"/>
<path d="M312.406 98L305 114.733H312.406V98Z" fill="#97B498"/>
<path d="M312.406 98L319 114.733H312.406V98Z" fill="#C8E6C9"/>
<path d="M311.323 117V114.625H313.49V117H311.323Z" fill="#A69B97"/>
<path d="M275.406 97L268 113.733H275.406V97Z" fill="#97B498"/>
<path d="M275.406 97L282 113.733H275.406V97Z" fill="#C8E6C9"/>
<path d="M274.323 116V113.625H276.49V116H274.323Z" fill="#A69B97"/>
<path d="M303.406 101L296 117.733H303.406V101Z" fill="#97B498"/>
<path d="M303.406 101L310 117.733H303.406V101Z" fill="#C8E6C9"/>
<path d="M302.323 120V117.625H304.49V120H302.323Z" fill="#A69B97"/>
<path d="M294.581 106L284 127.136H294.581V106Z" fill="#97B498"/>
<path d="M294.581 106L304 127.136H294.581V106Z" fill="#C8E6C9"/>
<path d="M293.032 130V127H296.129V130H293.032Z" fill="#A69B97"/>
<path d="M318.581 105L308 126.136H318.581V105Z" fill="#97B498"/>
<path d="M318.581 105L328 126.136H318.581V105Z" fill="#C8E6C9"/>
<path d="M317.032 129V126H320.129V129H317.032Z" fill="#A69B97"/>
<path d="M309.639 112L298 134.017H309.639V112Z" fill="#97B498"/>
<path d="M309.639 112L320 134.017H309.639V112Z" fill="#C8E6C9"/>
<path d="M307.935 137V133.875H311.342V137H307.935Z" fill="#A69B97"/>
<path d="M280.581 108L270 129.136H280.581V108Z" fill="#97B498"/>
<path d="M280.581 108L290 129.136H280.581V108Z" fill="#C8E6C9"/>
<path d="M279.032 132V129H282.129V132H279.032Z" fill="#A69B97"/>
<path d="M67.8774 96L61 110.091H67.8774V96Z" fill="#97B498"/>
<path d="M67.8774 96L74 110.091H67.8774V96Z" fill="#C8E6C9"/>
<path d="M66.871 112V110H68.8839V112H66.871Z" fill="#A69B97"/>
<path d="M87.4065 96L80 112.733H87.4065V96Z" fill="#97B498"/>
<path d="M87.4065 96L94 112.733H87.4065V96Z" fill="#C8E6C9"/>
<path d="M86.3226 115V112.625H88.4903V115H86.3226Z" fill="#A69B97"/>
<path d="M76.5806 101L66 122.136H76.5806V101Z" fill="#97B498"/>
<path d="M76.5806 101L86 122.136H76.5806V101Z" fill="#C8E6C9"/>
<path d="M75.0323 125V122H78.1291V125H75.0323Z" fill="#A69B97"/>
<path d="M98.5806 101L88 122.136H98.5806V101Z" fill="#97B498"/>
<path d="M98.5806 101L108 122.136H98.5806V101Z" fill="#C8E6C9"/>
<path d="M97.0323 125V122H100.129V125H97.0323Z" fill="#A69B97"/>
<path d="M89.6387 108L78 130.017H89.6387V108Z" fill="#97B498"/>
<path d="M89.6387 108L100 130.017H89.6387V108Z" fill="#C8E6C9"/>
<path d="M87.9355 133V129.875H91.3419V133H87.9355Z" fill="#A69B97"/>
<path d="M60.5806 104L50 125.136H60.5806V104Z" fill="#97B498"/>
<path d="M60.5806 104L70 125.136H60.5806V104Z" fill="#C8E6C9"/>
<path d="M59.0323 128V125H62.1291V128H59.0323Z" fill="#A69B97"/>
<path d="M121.406 98L114 114.733H121.406V98Z" fill="#97B498"/>
<path d="M121.406 98L128 114.733H121.406V98Z" fill="#C8E6C9"/>
<path d="M120.323 117V114.625H122.49V117H120.323Z" fill="#A69B97"/>
<path d="M140.406 98L133 114.733H140.406V98Z" fill="#97B498"/>
<path d="M140.406 98L147 114.733H140.406V98Z" fill="#C8E6C9"/>
<path d="M139.323 117V114.625H141.49V117H139.323Z" fill="#A69B97"/>
<path d="M129.581 103L119 124.136H129.581V103Z" fill="#97B498"/>
<path d="M129.581 103L139 124.136H129.581V103Z" fill="#C8E6C9"/>
<path d="M128.032 127V124H131.129V127H128.032Z" fill="#A69B97"/>
<path d="M151.581 103L141 124.136H151.581V103Z" fill="#97B498"/>
<path d="M151.581 103L161 124.136H151.581V103Z" fill="#C8E6C9"/>
<path d="M150.032 127V124H153.129V127H150.032Z" fill="#A69B97"/>
<path d="M142.639 110L131 132.017H142.639V110Z" fill="#97B498"/>
<path d="M142.639 110L153 132.017H142.639V110Z" fill="#C8E6C9"/>
<path d="M140.935 135V131.875H144.342V135H140.935Z" fill="#A69B97"/>
<path d="M113.581 106L103 127.136H113.581V106Z" fill="#97B498"/>
<path d="M113.581 106L123 127.136H113.581V106Z" fill="#C8E6C9"/>
<path d="M112.032 130V127H115.129V130H112.032Z" fill="#A69B97"/>
<path d="M161.761 103L157 114.449H161.761V103Z" fill="#97B498"/>
<path d="M161.761 103L166 114.449H161.761V103Z" fill="#C8E6C9"/>
<path d="M161.065 116V114.375H162.458V116H161.065Z" fill="#A69B97"/>
<path d="M172.761 101L168 112.449H172.761V101Z" fill="#97B498"/>
<path d="M172.761 101L177 112.449H172.761V101Z" fill="#C8E6C9"/>
<path d="M172.065 114V112.375H173.458V114H172.065Z" fill="#A69B97"/>
<path d="M186.761 99L182 110.449H186.761V99Z" fill="#97B498"/>
<path d="M186.761 99L191 110.449H186.761V99Z" fill="#C8E6C9"/>
<path d="M186.065 112V110.375H187.458V112H186.065Z" fill="#A69B97"/>
<path d="M208.761 98L204 109.449H208.761V98Z" fill="#97B498"/>
<path d="M208.761 98L213 109.449H208.761V98Z" fill="#C8E6C9"/>
<path d="M208.065 111V109.375H209.458V111H208.065Z" fill="#A69B97"/>
<path d="M216.406 96L209 112.733H216.406V96Z" fill="#97B498"/>
<path d="M216.406 96L223 112.733H216.406V96Z" fill="#C8E6C9"/>
<path d="M215.323 115V112.625H217.49V115H215.323Z" fill="#A69B97"/>
<path d="M255.406 96L248 112.733H255.406V96Z" fill="#97B498"/>
<path d="M255.406 96L262 112.733H255.406V96Z" fill="#C8E6C9"/>
<path d="M254.323 115V112.625H256.49V115H254.323Z" fill="#A69B97"/>
<path d="M265.406 99L258 115.733H265.406V99Z" fill="#97B498"/>
<path d="M265.406 99L272 115.733H265.406V99Z" fill="#C8E6C9"/>
<path d="M264.323 118V115.625H266.49V118H264.323Z" fill="#A69B97"/>
<path d="M194.406 97L187 113.733H194.406V97Z" fill="#97B498"/>
<path d="M194.406 97L201 113.733H194.406V97Z" fill="#C8E6C9"/>
<path d="M193.323 116V113.625H195.49V116H193.323Z" fill="#A69B97"/>
<path d="M181.581 103L171 124.136H181.581V103Z" fill="#97B498"/>
<path d="M181.581 103L191 124.136H181.581V103Z" fill="#C8E6C9"/>
<path d="M180.032 127V124H183.129V127H180.032Z" fill="#A69B97"/>
<path d="M205.581 102L195 123.136H205.581V102Z" fill="#97B498"/>
<path d="M205.581 102L215 123.136H205.581V102Z" fill="#C8E6C9"/>
<path d="M204.032 126V123H207.129V126H204.032Z" fill="#A69B97"/>
<path d="M196.639 109L185 131.017H196.639V109Z" fill="#97B498"/>
<path d="M196.639 109L207 131.017H196.639V109Z" fill="#C8E6C9"/>
<path d="M194.935 134V130.875H198.342V134H194.935Z" fill="#A69B97"/>
<path d="M167.581 105L157 126.136H167.581V105Z" fill="#97B498"/>
<path d="M167.581 105L177 126.136H167.581V105Z" fill="#C8E6C9"/>
<path d="M166.032 129V126H169.129V129H166.032Z" fill="#A69B97"/>
<path d="M221.406 102L214 118.733H221.406V102Z" fill="#97B498"/>
<path d="M221.406 102L228 118.733H221.406V102Z" fill="#C8E6C9"/>
<path d="M220.323 121V118.625H222.49V121H220.323Z" fill="#A69B97"/>
<path d="M217.581 112L207 133.136H217.581V112Z" fill="#97B498"/>
<path d="M217.581 112L227 133.136H217.581V112Z" fill="#C8E6C9"/>
<path d="M216.032 136V133H219.129V136H216.032Z" fill="#A69B97"/>
<path d="M241.406 106L234 122.733H241.406V106Z" fill="#97B498"/>
<path d="M241.406 106L248 122.733H241.406V106Z" fill="#C8E6C9"/>
<path d="M240.323 125V122.625H242.49V125H240.323Z" fill="#A69B97"/>
<path d="M260.406 106L253 122.733H260.406V106Z" fill="#97B498"/>
<path d="M260.406 106L267 122.733H260.406V106Z" fill="#C8E6C9"/>
<path d="M259.323 125V122.625H261.49V125H259.323Z" fill="#A69B97"/>
<path d="M250.581 106L240 127.136H250.581V106Z" fill="#97B498"/>
<path d="M250.581 106L260 127.136H250.581V106Z" fill="#C8E6C9"/>
<path d="M249.032 130V127H252.129V130H249.032Z" fill="#A69B97"/>
<path d="M271.581 111L261 132.136H271.581V111Z" fill="#97B498"/>
<path d="M271.581 111L281 132.136H271.581V111Z" fill="#C8E6C9"/>
<path d="M270.032 135V132H273.129V135H270.032Z" fill="#A69B97"/>
<path d="M259.639 116L248 138.017H259.639V116Z" fill="#97B498"/>
<path d="M259.639 116L270 138.017H259.639V116Z" fill="#C8E6C9"/>
<path d="M257.935 141V137.875H261.342V141H257.935Z" fill="#A69B97"/>
<path d="M233.581 114L223 135.136H233.581V114Z" fill="#97B498"/>
<path d="M233.581 114L243 135.136H233.581V114Z" fill="#C8E6C9"/>
<path d="M232.032 138V135H235.129V138H232.032Z" fill="#A69B97"/>
<path d="M184.619 157.378L177.796 153.392L176.179 154.224L183.002 158.211L183.093 158.164L184.619 157.378Z" fill="#795548"/>
<path d="M176.179 154.224L183.002 158.211L183.093 158.164L183.093 159.232L183.002 159.275L176.179 155.5L176.179 154.224Z" fill="#795548"/>
<path d="M184.619 157.378L184.642 158.5L183.093 159.232L183.093 158.164L184.619 157.378Z" fill="#795548"/>
<path d="M175.87 157.378L182.693 153.392L184.31 154.224L177.486 158.211L177.396 158.164L175.87 157.378Z" fill="#795548"/>
<path d="M184.31 154.224L177.486 158.211L177.396 158.164L177.396 159.232L177.486 159.275L184.31 155.5L184.31 154.224Z" fill="#795548"/>
<path d="M175.87 157.378L175.847 158.5L177.396 159.232L177.396 158.164L175.87 157.378Z" fill="#795548"/>
<path d="M177.5 153C177.167 153.333 177.8 151.5 179 155.5H179.5H180.5H180L181.5 154L181 152.5L180.5 151.5L181 149L180 150.5L179.5 148.5L179 149.5L178.5 152V151L178 149.5L177.5 153Z" fill="#EB5757"/>
<path d="M181 152.5L180 155.5H180.5H182.5L182 154.5V154L183 152.5L183.5 151.5V150L182 148L182 150.5L181 152.5Z" fill="#EB5757"/>
<path d="M156.5 135.5C155.333 134.5 150.6 135.2 141 146L157 152.857C159.167 148.857 163.5 140.6 159.5 137L156.5 135.5Z" fill="#F2C94C"/>
<path d="M155.241 135.174C155.834 135.149 156.249 135.285 156.5 135.5L159.5 137L164 136L160 134L155.241 135.174Z" fill="#F2C94C"/>
<path fill-rule="evenodd" clip-rule="evenodd" d="M159.5 137C163.5 140.6 159.167 148.857 157 152.857L175 147.5C175 146.5 172.4 142.4 164 136L159.5 137ZM161.5 150L163.5 138L173 146.5L161.5 150Z" fill="#FFE080"/>
<path fill-rule="evenodd" clip-rule="evenodd" d="M163.5 138L161.5 150L173 146.5L163.5 138Z" fill="#F2C94C" fill-opacity="0.23"/>
<path d="M163.5 138L161.5 150L173 146.5L163.5 138Z" fill="#FFF3CE"/>
</svg>
